<mxfile host="app.diagrams.net" modified="2024-01-15T03:54:15.934Z" agent="Mozilla/5.0 (Macintosh; Intel Mac OS X 10_15_7) AppleWebKit/605.1.15 (KHTML, like Gecko) Version/17.2.1 Safari/605.1.15" version="22.1.18" etag="LU0B192VyQDMHFuhwgPJ" type="github">
  <diagram name="Page-1" id="6jOgdSCcwrjXgS7bjGLY">
    <mxGraphModel>
      <root>
        <mxCell id="0" />
        <mxCell id="1" parent="0" />
      </root>
    </mxGraphModel>
  </diagram>
</mxfile>
